<svg width="640" height="700" viewBox="0 0 640 700" fill="none" xmlns="http://www.w3.org/2000/svg">
<rect width="640" height="700" fill="#4487D9"/>
<path d="M639.833 152.984C638.099 235.068 569.729 299.844 488.309 299.844H342.26V685.957C342.29 687.79 341.958 689.612 341.284 691.312C340.61 693.015 339.606 694.564 338.331 695.873C337.057 697.18 335.537 698.216 333.861 698.925C332.185 699.634 330.386 699.998 328.568 699.998H256.913C255.077 700.029 253.253 699.686 251.55 698.992C249.847 698.298 248.3 697.264 247.002 695.955C245.703 694.646 244.678 693.085 243.99 691.366C243.301 689.648 242.962 687.808 242.993 685.957V299.844H157.692C154.083 299.771 150.641 298.295 148.088 295.719C145.535 293.143 144.07 289.672 144 286.031V213.799C144.072 210.119 145.568 206.613 148.17 204.032C150.771 201.451 154.271 199.999 157.92 199.988H489.403C516.195 199.988 540.154 177.936 540.656 150.912C540.809 144.242 539.638 137.609 537.213 131.401C534.791 125.194 531.161 119.537 526.537 114.764C521.916 109.991 516.397 106.197 510.303 103.606C504.207 101.014 497.66 99.6768 491.047 99.6726H356.135C352.486 99.6613 348.986 98.2096 346.384 95.6286C343.783 93.0473 342.286 89.5415 342.214 85.8613V13.8131C342.214 11.9799 342.576 10.1649 343.278 8.47405C343.98 6.78324 345.009 5.25036 346.305 3.96482C347.601 2.67928 349.137 1.66679 350.825 0.986407C352.513 0.306026 354.317 -0.0286322 356.135 0.00191811H491.047C510.829 -0.00180975 530.416 3.97412 548.657 11.6971C566.899 19.4201 583.43 30.7352 597.284 44.9802C611.139 59.2252 622.037 76.114 629.344 94.659C636.648 113.204 640.215 133.032 639.833 152.984Z" fill="#3D7BC6"/>
<path d="M590.279 614.132V685.949C590.312 687.783 589.979 689.604 589.306 691.304C588.63 693.008 587.626 694.556 586.352 695.866C585.078 697.172 583.558 698.209 581.881 698.918C580.205 699.627 578.405 699.991 576.587 699.991H455.368C453.55 699.991 451.751 699.627 450.077 698.918C448.401 698.209 446.88 697.172 445.606 695.866C444.332 694.556 443.329 693.008 442.653 691.304C441.98 689.604 441.646 687.783 441.676 685.949V416.446C441.676 412.785 443.118 409.272 445.687 406.681C448.256 404.092 451.739 402.637 455.368 402.637H526.749C530.382 402.637 533.864 404.092 536.43 406.681C538.999 409.272 540.441 412.785 540.441 416.446V592.631C540.453 594.613 541.244 596.511 542.638 597.908C544.032 599.305 545.916 600.09 547.881 600.09H576.133C577.987 600.026 579.835 600.345 581.566 601.026C583.297 601.705 584.871 602.736 586.193 604.048C587.518 605.36 588.561 606.933 589.264 608.667C589.967 610.401 590.312 612.259 590.279 614.132Z" fill="#3D7BC6"/>
<rect x="260" y="216" width="144" height="108" fill="#181818"/>
<rect x="129" y="324" width="144" height="108" fill="#0BB664"/>
<rect width="144" height="108" fill="#FFCE33"/>
<rect x="129" y="108" width="144" height="108" fill="#FE7E31"/>
<circle cx="51" cy="69" r="39" fill="#E44453"/>
<path d="M51 36L53.3846 56.0119L63.2459 38.4359L57.7907 57.837L73.6274 45.3726L61.163 61.2093L80.5641 55.7541L62.9881 65.6154L83 68L62.9881 70.3846L80.5641 80.2459L61.163 74.7907L73.6274 90.6274L57.7907 78.163L63.2459 97.5641L53.3846 79.9881L51 100L48.6154 79.9881L38.7541 97.5641L44.2093 78.163L28.3726 90.6274L40.837 74.7907L21.4359 80.2459L39.0119 70.3846L19 68L39.0119 65.6154L21.4359 55.7541L40.837 61.2093L28.3726 45.3726L44.2093 57.837L38.7541 38.4359L48.6154 56.0119L51 36Z" fill="#FFF3D7"/>
<circle cx="354" cy="285" r="39" fill="#4487D9"/>
<path d="M354 253L356.385 273.012L366.246 255.436L360.791 274.837L376.627 262.373L364.163 278.209L383.564 272.754L365.988 282.615L386 285L365.988 287.385L383.564 297.246L364.163 291.791L376.627 307.627L360.791 295.163L366.246 314.564L356.385 296.988L354 317L351.615 296.988L341.754 314.564L347.209 295.163L331.373 307.627L343.837 291.791L324.436 297.246L342.012 287.385L322 285L342.012 282.615L324.436 272.754L343.837 278.209L331.373 262.373L347.209 274.837L341.754 255.436L351.615 273.012L354 253Z" fill="#FFF3D7"/>
<path d="M32.224 612L34.72 594.12H40.576C41.664 594.12 42.608 594.336 43.408 594.768C44.208 595.2 44.824 595.808 45.256 596.592C45.688 597.36 45.904 598.272 45.904 599.328C45.904 600.224 45.728 601.048 45.376 601.8C45.024 602.536 44.52 603.16 43.864 603.672C43.224 604.184 42.464 604.56 41.584 604.8L44.704 612H42.568L39.256 604.248L40.456 605.04H35.104L34.144 612H32.224ZM35.368 603.24H39.712C40.56 603.24 41.304 603.072 41.944 602.736C42.584 602.384 43.08 601.912 43.432 601.32C43.8 600.728 43.984 600.048 43.984 599.28C43.984 598.224 43.664 597.4 43.024 596.808C42.4 596.216 41.552 595.92 40.48 595.92H36.4L35.368 603.24ZM53.7184 612.288C52.5664 612.288 51.5424 612.024 50.6464 611.496C49.7504 610.952 49.0384 610.208 48.5104 609.264C47.9984 608.32 47.7424 607.24 47.7424 606.024C47.7424 605.048 47.9024 604.128 48.2224 603.264C48.5584 602.4 49.0224 601.64 49.6144 600.984C50.2224 600.312 50.9264 599.792 51.7264 599.424C52.5264 599.04 53.4064 598.848 54.3664 598.848C55.5504 598.848 56.5584 599.12 57.3904 599.664C58.2224 600.208 58.8544 600.92 59.2864 601.8C59.7184 602.664 59.9344 603.584 59.9344 604.56C59.9344 604.816 59.9104 605.096 59.8624 605.4C59.8144 605.704 59.7744 605.944 59.7424 606.12H48.8704L48.9904 604.44H58.8304L57.9184 605.136C58.1424 604.288 58.1104 603.52 57.8224 602.832C57.5504 602.128 57.1024 601.568 56.4784 601.152C55.8704 600.736 55.1584 600.528 54.3424 600.528C53.3184 600.528 52.4544 600.776 51.7504 601.272C51.0464 601.768 50.5104 602.464 50.1424 603.36C49.7904 604.24 49.6144 605.264 49.6144 606.432C49.6144 607.28 49.8064 608.024 50.1904 608.664C50.5744 609.288 51.0784 609.768 51.7024 610.104C52.3264 610.44 53.0064 610.608 53.7424 610.608C54.6864 610.608 55.4944 610.384 56.1664 609.936C56.8544 609.472 57.4224 608.904 57.8704 608.232L59.3824 609.096C59.0784 609.672 58.6464 610.208 58.0864 610.704C57.5264 611.184 56.8704 611.568 56.1184 611.856C55.3824 612.144 54.5824 612.288 53.7184 612.288ZM65.1102 612L61.9182 599.136H63.8382L66.4782 610.416H65.8542L71.6862 599.136H73.7982L66.9102 612H65.1102ZM80.4423 612.288C79.2903 612.288 78.2423 612.024 77.2983 611.496C76.3703 610.952 75.6263 610.2 75.0663 609.24C74.5223 608.28 74.2503 607.176 74.2503 605.928C74.2503 604.952 74.4263 604.04 74.7783 603.192C75.1303 602.328 75.6183 601.576 76.2423 600.936C76.8823 600.28 77.6183 599.768 78.4503 599.4C79.2983 599.032 80.2023 598.848 81.1623 598.848C82.3463 598.848 83.4023 599.12 84.3303 599.664C85.2743 600.192 86.0183 600.928 86.5623 601.872C87.1063 602.816 87.3783 603.904 87.3783 605.136C87.3783 606.112 87.1943 607.032 86.8263 607.896C86.4743 608.76 85.9783 609.528 85.3383 610.2C84.6983 610.856 83.9623 611.368 83.1303 611.736C82.2983 612.104 81.4023 612.288 80.4423 612.288ZM80.4183 610.488C81.3623 610.488 82.2103 610.24 82.9623 609.744C83.7303 609.248 84.3383 608.592 84.7863 607.776C85.2343 606.96 85.4583 606.072 85.4583 605.112C85.4583 604.248 85.2743 603.48 84.9062 602.808C84.5383 602.136 84.0263 601.608 83.3703 601.224C82.7303 600.84 82.0023 600.648 81.1863 600.648C80.2583 600.648 79.4103 600.896 78.6423 601.392C77.8903 601.872 77.2903 602.512 76.8423 603.312C76.3943 604.112 76.1703 605 76.1703 605.976C76.1703 606.84 76.3543 607.616 76.7223 608.304C77.0903 608.976 77.5943 609.512 78.2343 609.912C78.8743 610.296 79.6023 610.488 80.4183 610.488ZM89.6631 612L92.2071 593.832H94.0311L91.4871 612H89.6631ZM99.8258 612.288C98.9138 612.288 98.1138 612.072 97.4258 611.64C96.7378 611.192 96.2338 610.568 95.9138 609.768C95.5938 608.968 95.5058 608.032 95.6498 606.96L96.7538 599.136H98.5538L97.4258 607.08C97.3298 607.768 97.3858 608.368 97.5938 608.88C97.8018 609.392 98.1298 609.792 98.5778 610.08C99.0258 610.352 99.5698 610.488 100.21 610.488C100.882 610.488 101.498 610.336 102.058 610.032C102.618 609.728 103.082 609.296 103.45 608.736C103.834 608.176 104.082 607.512 104.194 606.744L105.274 599.136H107.074L105.274 612H103.474L103.81 609.504L104.218 609.648C103.786 610.48 103.178 611.128 102.394 611.592C101.626 612.056 100.77 612.288 99.8258 612.288ZM113.991 612.144C112.823 612.144 111.967 611.8 111.423 611.112C110.879 610.424 110.687 609.456 110.847 608.208L111.855 600.936H109.479L109.743 599.136H110.295C110.839 599.136 111.303 598.952 111.687 598.584C112.087 598.2 112.319 597.736 112.383 597.192L112.527 596.16H114.351L113.943 599.136H116.751L116.487 600.936H113.679L112.647 608.304C112.583 608.736 112.583 609.12 112.647 609.456C112.727 609.776 112.903 610.024 113.175 610.2C113.447 610.376 113.839 610.464 114.351 610.464C114.511 610.464 114.679 610.456 114.855 610.44C115.031 610.424 115.183 610.408 115.311 610.392L115.167 612.048C114.975 612.096 114.759 612.12 114.519 612.12C114.295 612.136 114.119 612.144 113.991 612.144ZM118.351 612L120.151 599.136H121.975L120.175 612H118.351ZM120.487 596.76L120.847 594.12H122.671L122.311 596.76H120.487ZM130.481 612.288C129.329 612.288 128.281 612.024 127.337 611.496C126.409 610.952 125.665 610.2 125.105 609.24C124.561 608.28 124.289 607.176 124.289 605.928C124.289 604.952 124.465 604.04 124.817 603.192C125.169 602.328 125.657 601.576 126.281 600.936C126.921 600.28 127.657 599.768 128.489 599.4C129.337 599.032 130.241 598.848 131.201 598.848C132.385 598.848 133.441 599.12 134.369 599.664C135.313 600.192 136.057 600.928 136.601 601.872C137.145 602.816 137.417 603.904 137.417 605.136C137.417 606.112 137.233 607.032 136.865 607.896C136.513 608.76 136.017 609.528 135.377 610.2C134.737 610.856 134.001 611.368 133.169 611.736C132.337 612.104 131.441 612.288 130.481 612.288ZM130.457 610.488C131.401 610.488 132.249 610.24 133.001 609.744C133.769 609.248 134.377 608.592 134.825 607.776C135.273 606.96 135.497 606.072 135.497 605.112C135.497 604.248 135.313 603.48 134.945 602.808C134.577 602.136 134.065 601.608 133.409 601.224C132.769 600.84 132.041 600.648 131.225 600.648C130.297 600.648 129.449 600.896 128.681 601.392C127.929 601.872 127.329 602.512 126.881 603.312C126.433 604.112 126.209 605 126.209 605.976C126.209 606.84 126.393 607.616 126.761 608.304C127.129 608.976 127.633 609.512 128.273 609.912C128.913 610.296 129.641 610.488 130.457 610.488ZM139.702 612L141.502 599.136H143.302L142.966 601.632L142.558 601.488C142.974 600.656 143.574 600.008 144.358 599.544C145.158 599.08 146.022 598.848 146.95 598.848C147.878 598.848 148.678 599.064 149.35 599.496C150.038 599.928 150.542 600.528 150.862 601.296C151.198 602.064 151.294 602.944 151.15 603.936L150.022 612H148.222L149.326 604.056C149.47 603.016 149.286 602.192 148.774 601.584C148.262 600.96 147.526 600.648 146.566 600.648C145.894 600.648 145.27 600.8 144.694 601.104C144.134 601.408 143.662 601.84 143.278 602.4C142.91 602.96 142.67 603.624 142.558 604.392L141.502 612H139.702ZM153.483 612L155.283 599.136H157.107L155.307 612H153.483ZM155.619 596.76L155.979 594.12H157.803L157.443 596.76H155.619ZM157.718 612L157.91 610.44L167.054 600.288L167.342 600.936H159.662L159.926 599.136H169.19L168.998 600.696L159.878 610.848L159.59 610.2H167.678L167.438 612H157.718ZM169.843 612L171.643 599.136H173.467L171.667 612H169.843ZM171.979 596.76L172.339 594.12H174.163L173.803 596.76H171.979ZM175.398 612L177.198 599.136H178.998L178.662 601.632L178.254 601.488C178.67 600.656 179.27 600.008 180.054 599.544C180.854 599.08 181.718 598.848 182.646 598.848C183.574 598.848 184.374 599.064 185.046 599.496C185.734 599.928 186.238 600.528 186.557 601.296C186.894 602.064 186.99 602.944 186.846 603.936L185.718 612H183.918L185.022 604.056C185.166 603.016 184.982 602.192 184.47 601.584C183.958 600.96 183.222 600.648 182.262 600.648C181.59 600.648 180.966 600.8 180.39 601.104C179.83 601.408 179.358 601.84 178.974 602.4C178.606 602.96 178.366 603.624 178.254 604.392L177.198 612H175.398ZM194.699 617.28C193.771 617.28 192.947 617.136 192.227 616.848C191.507 616.576 190.907 616.2 190.427 615.72C189.963 615.24 189.627 614.688 189.419 614.064L191.099 613.368C191.291 613.928 191.691 614.416 192.299 614.832C192.907 615.264 193.771 615.48 194.891 615.48C195.611 615.48 196.307 615.344 196.979 615.072C197.651 614.8 198.227 614.384 198.707 613.824C199.187 613.28 199.483 612.576 199.595 611.712L200.027 608.64L200.555 608.928C200.059 609.856 199.347 610.568 198.419 611.064C197.507 611.56 196.523 611.808 195.467 611.808C194.395 611.808 193.411 611.56 192.515 611.064C191.619 610.552 190.907 609.848 190.379 608.952C189.851 608.04 189.587 606.984 189.587 605.784C189.587 604.84 189.755 603.952 190.091 603.12C190.427 602.272 190.899 601.528 191.507 600.888C192.131 600.248 192.851 599.752 193.667 599.4C194.483 599.032 195.371 598.848 196.331 598.848C197.435 598.848 198.403 599.096 199.235 599.592C200.083 600.072 200.739 600.72 201.203 601.536L200.963 602.016L201.347 599.136H203.171L201.419 611.76C201.275 612.864 200.883 613.832 200.243 614.664C199.603 615.496 198.803 616.136 197.843 616.584C196.883 617.048 195.835 617.28 194.699 617.28ZM195.611 610.008C196.507 610.008 197.323 609.776 198.059 609.312C198.811 608.832 199.411 608.208 199.859 607.44C200.307 606.672 200.531 605.848 200.531 604.968C200.531 604.152 200.355 603.416 200.003 602.76C199.651 602.104 199.163 601.592 198.539 601.224C197.915 600.84 197.195 600.648 196.379 600.648C195.515 600.648 194.707 600.872 193.955 601.32C193.219 601.768 192.627 602.376 192.179 603.144C191.731 603.896 191.507 604.752 191.507 605.712C191.507 606.528 191.683 607.264 192.035 607.92C192.403 608.56 192.899 609.072 193.523 609.456C194.147 609.824 194.843 610.008 195.611 610.008ZM209.435 612L211.931 594.12H213.851L211.355 612H209.435ZM218.695 612L220.951 595.92H216.007L216.247 594.12H228.007L227.767 595.92H222.871L220.615 612H218.695ZM231.982 612L234.478 594.12H245.998L245.758 595.92H236.158L235.27 602.136H244.39L244.15 603.936H235.03L234.142 610.2H243.742L243.502 612H231.982ZM244.829 612L250.301 605.472L246.821 599.136H248.885L251.981 604.776L250.949 604.68L255.509 599.136H257.885L252.485 605.64L256.013 612H253.925L250.853 606.336L251.741 606.432L247.133 612H244.829ZM257.53 616.8L260.002 599.136H261.826L261.418 602.016L260.818 601.488C261.378 600.672 262.098 600.032 262.978 599.568C263.874 599.088 264.866 598.848 265.954 598.848C267.154 598.848 268.202 599.128 269.098 599.688C269.994 600.232 270.682 600.976 271.162 601.92C271.658 602.848 271.906 603.896 271.906 605.064C271.906 606.04 271.738 606.968 271.402 607.848C271.066 608.712 270.586 609.48 269.962 610.152C269.354 610.824 268.634 611.352 267.802 611.736C266.986 612.104 266.09 612.288 265.114 612.288C263.994 612.288 262.97 612.032 262.042 611.52C261.13 610.992 260.466 610.272 260.05 609.36L260.41 609.12L259.354 616.8H257.53ZM265.066 610.488C266.01 610.488 266.85 610.24 267.586 609.744C268.322 609.248 268.906 608.592 269.338 607.776C269.77 606.96 269.986 606.072 269.986 605.112C269.986 604.248 269.802 603.48 269.434 602.808C269.082 602.136 268.586 601.608 267.946 601.224C267.322 600.84 266.586 600.648 265.738 600.648C264.794 600.648 263.946 600.896 263.194 601.392C262.458 601.872 261.882 602.512 261.466 603.312C261.05 604.112 260.842 604.984 260.842 605.928C260.842 606.808 261.026 607.592 261.394 608.28C261.762 608.968 262.258 609.512 262.882 609.912C263.522 610.296 264.25 610.488 265.066 610.488ZM280.547 612.288C279.395 612.288 278.371 612.024 277.475 611.496C276.579 610.952 275.867 610.208 275.339 609.264C274.827 608.32 274.571 607.24 274.571 606.024C274.571 605.048 274.731 604.128 275.051 603.264C275.387 602.4 275.851 601.64 276.443 600.984C277.051 600.312 277.755 599.792 278.555 599.424C279.355 599.04 280.235 598.848 281.195 598.848C282.379 598.848 283.387 599.12 284.219 599.664C285.051 600.208 285.683 600.92 286.115 601.8C286.547 602.664 286.763 603.584 286.763 604.56C286.763 604.816 286.739 605.096 286.691 605.4C286.643 605.704 286.603 605.944 286.571 606.12H275.699L275.819 604.44H285.659L284.747 605.136C284.971 604.288 284.939 603.52 284.651 602.832C284.379 602.128 283.931 601.568 283.307 601.152C282.699 600.736 281.987 600.528 281.171 600.528C280.147 600.528 279.283 600.776 278.579 601.272C277.875 601.768 277.339 602.464 276.971 603.36C276.619 604.24 276.443 605.264 276.443 606.432C276.443 607.28 276.635 608.024 277.019 608.664C277.403 609.288 277.907 609.768 278.531 610.104C279.155 610.44 279.835 610.608 280.571 610.608C281.515 610.608 282.323 610.384 282.995 609.936C283.683 609.472 284.251 608.904 284.699 608.232L286.211 609.096C285.907 609.672 285.475 610.208 284.915 610.704C284.355 611.184 283.699 611.568 282.947 611.856C282.211 612.144 281.411 612.288 280.547 612.288ZM288.999 612L290.799 599.136H292.623L292.335 601.248L292.095 600.936C292.495 600.328 293.023 599.848 293.679 599.496C294.351 599.144 295.127 598.968 296.007 598.968H296.823L296.559 600.768H295.431C294.503 600.768 293.719 601.064 293.079 601.656C292.455 602.248 292.055 603.136 291.879 604.32L290.823 612H288.999ZM297.108 612L298.908 599.136H300.732L298.932 612H297.108ZM299.244 596.76L299.604 594.12H301.428L301.068 596.76H299.244ZM309.023 612.288C307.871 612.288 306.847 612.024 305.951 611.496C305.055 610.952 304.343 610.208 303.815 609.264C303.303 608.32 303.047 607.24 303.047 606.024C303.047 605.048 303.207 604.128 303.527 603.264C303.863 602.4 304.327 601.64 304.919 600.984C305.527 600.312 306.231 599.792 307.031 599.424C307.831 599.04 308.711 598.848 309.671 598.848C310.855 598.848 311.863 599.12 312.695 599.664C313.527 600.208 314.159 600.92 314.591 601.8C315.023 602.664 315.239 603.584 315.239 604.56C315.239 604.816 315.215 605.096 315.167 605.4C315.119 605.704 315.079 605.944 315.047 606.12H304.175L304.295 604.44H314.135L313.223 605.136C313.447 604.288 313.415 603.52 313.127 602.832C312.855 602.128 312.407 601.568 311.783 601.152C311.175 600.736 310.463 600.528 309.647 600.528C308.623 600.528 307.759 600.776 307.055 601.272C306.351 601.768 305.815 602.464 305.447 603.36C305.095 604.24 304.919 605.264 304.919 606.432C304.919 607.28 305.111 608.024 305.495 608.664C305.879 609.288 306.383 609.768 307.007 610.104C307.631 610.44 308.311 610.608 309.047 610.608C309.991 610.608 310.799 610.384 311.471 609.936C312.159 609.472 312.727 608.904 313.175 608.232L314.687 609.096C314.383 609.672 313.951 610.208 313.391 610.704C312.831 611.184 312.175 611.568 311.423 611.856C310.687 612.144 309.887 612.288 309.023 612.288ZM317.476 612L319.276 599.136H321.076L320.74 601.632L320.332 601.488C320.748 600.656 321.348 600.008 322.132 599.544C322.932 599.08 323.796 598.848 324.724 598.848C325.652 598.848 326.452 599.064 327.124 599.496C327.812 599.928 328.316 600.528 328.636 601.296C328.972 602.064 329.068 602.944 328.924 603.936L327.796 612H325.996L327.1 604.056C327.244 603.016 327.06 602.192 326.548 601.584C326.036 600.96 325.3 600.648 324.34 600.648C323.668 600.648 323.044 600.8 322.468 601.104C321.908 601.408 321.436 601.84 321.052 602.4C320.684 602.96 320.444 603.624 320.332 604.392L319.276 612H317.476ZM337.521 612.288C336.369 612.288 335.345 612.016 334.449 611.472C333.569 610.928 332.881 610.184 332.385 609.24C331.889 608.296 331.641 607.224 331.641 606.024C331.641 605.016 331.809 604.08 332.145 603.216C332.497 602.336 332.977 601.568 333.585 600.912C334.209 600.256 334.929 599.752 335.745 599.4C336.577 599.032 337.465 598.848 338.409 598.848C339.241 598.848 340.001 598.992 340.689 599.28C341.393 599.552 342.001 599.936 342.513 600.432C343.025 600.928 343.401 601.504 343.641 602.16L341.985 602.952C341.713 602.264 341.265 601.712 340.641 601.296C340.017 600.864 339.281 600.648 338.433 600.648C337.489 600.648 336.649 600.904 335.913 601.416C335.177 601.912 334.601 602.568 334.185 603.384C333.769 604.2 333.561 605.08 333.561 606.024C333.561 606.888 333.737 607.656 334.089 608.328C334.441 609 334.929 609.528 335.553 609.912C336.177 610.296 336.881 610.488 337.665 610.488C338.529 610.488 339.305 610.272 339.993 609.84C340.681 609.392 341.217 608.808 341.601 608.088L343.185 609.024C342.849 609.664 342.393 610.232 341.817 610.728C341.257 611.208 340.609 611.592 339.873 611.88C339.137 612.152 338.353 612.288 337.521 612.288ZM352.312 612.288C351.16 612.288 350.136 612.024 349.24 611.496C348.344 610.952 347.632 610.208 347.104 609.264C346.592 608.32 346.336 607.24 346.336 606.024C346.336 605.048 346.496 604.128 346.816 603.264C347.152 602.4 347.616 601.64 348.208 600.984C348.816 600.312 349.52 599.792 350.32 599.424C351.12 599.04 352 598.848 352.96 598.848C354.144 598.848 355.152 599.12 355.984 599.664C356.816 600.208 357.448 600.92 357.88 601.8C358.312 602.664 358.528 603.584 358.528 604.56C358.528 604.816 358.504 605.096 358.456 605.4C358.408 605.704 358.368 605.944 358.336 606.12H347.464L347.584 604.44H357.424L356.512 605.136C356.736 604.288 356.704 603.52 356.416 602.832C356.144 602.128 355.696 601.568 355.072 601.152C354.464 600.736 353.752 600.528 352.936 600.528C351.912 600.528 351.048 600.776 350.344 601.272C349.64 601.768 349.104 602.464 348.736 603.36C348.384 604.24 348.208 605.264 348.208 606.432C348.208 607.28 348.4 608.024 348.784 608.664C349.168 609.288 349.672 609.768 350.296 610.104C350.92 610.44 351.6 610.608 352.336 610.608C353.28 610.608 354.088 610.384 354.76 609.936C355.448 609.472 356.016 608.904 356.464 608.232L357.976 609.096C357.672 609.672 357.24 610.208 356.68 610.704C356.12 611.184 355.464 611.568 354.712 611.856C353.976 612.144 353.176 612.288 352.312 612.288ZM361.365 612L361.749 609.36H363.669L363.285 612H361.365Z" fill="white"/>
<path d="M68.575 325.5H36.25V378H48.325V360.975H67.15C81.7 360.975 89.575 355.125 89.575 343.2C89.575 332.625 82.975 325.5 68.575 325.5ZM66.475 351.825H48.325V334.8H66.475C73.525 334.8 77.275 337.275 77.275 343.2C77.275 348.975 73.525 351.825 66.475 351.825ZM135.603 378H148.428L124.203 325.5H109.353L85.0527 378H97.8777L102.378 367.725H131.178L135.603 378ZM106.428 358.5L116.778 334.65L127.128 358.5H106.428ZM180.375 346.725C171.15 345.45 162.45 345.15 162.45 340.2C162.45 336.6 165 333.675 175.8 333.675C185.475 333.675 189.825 337.05 190.275 340.8H201.975C201.675 331.5 194.475 324.45 175.95 324.45C156.675 324.45 150.825 332.4 150.825 341.025C150.825 349.275 155.325 353.625 169.65 356.025C183.975 358.425 192.075 357.9 192.075 363.3C192.075 367.275 187.875 369.9 177.9 369.9C168.375 369.9 162.075 367.125 161.775 361.65H149.175C149.175 372.3 158.7 379.125 176.85 379.125C195.525 379.125 204.9 373.05 204.9 361.65C204.9 349.95 194.85 348.75 180.375 346.725ZM240.58 346.725C231.355 345.45 222.655 345.15 222.655 340.2C222.655 336.6 225.205 333.675 236.005 333.675C245.68 333.675 250.03 337.05 250.48 340.8H262.18C261.88 331.5 254.68 324.45 236.155 324.45C216.88 324.45 211.03 332.4 211.03 341.025C211.03 349.275 215.53 353.625 229.855 356.025C244.18 358.425 252.28 357.9 252.28 363.3C252.28 367.275 248.08 369.9 238.105 369.9C228.58 369.9 222.28 367.125 221.98 361.65H209.38C209.38 372.3 218.905 379.125 237.055 379.125C255.73 379.125 265.105 373.05 265.105 361.65C265.105 349.95 255.055 348.75 240.58 346.725ZM272.603 325.5V378H284.678V325.5H272.603ZM323.511 324.45C308.361 324.45 292.161 331.725 292.161 351.75C292.161 371.85 308.361 379.125 323.511 379.125C338.661 379.125 354.786 371.85 354.786 351.75C354.786 331.725 338.661 324.45 323.511 324.45ZM323.511 369.975C310.461 369.975 304.536 362.1 304.536 351.75C304.536 341.475 310.461 333.6 323.511 333.6C336.561 333.6 342.486 341.475 342.486 351.75C342.486 362.1 336.561 369.975 323.511 369.975ZM404.851 325.5V363.075L375.751 325.5H362.251V378H374.326V340.5L403.426 378H417.001V325.5H404.851ZM85.075 420.5H33.25V429.8H53.125V473H65.2V429.8H85.075V420.5ZM136.673 420.5V441.425H104.648V420.5H92.5732V473H104.648V450.725H136.673V473H148.748V420.5H136.673ZM159.224 420.5V473H171.299V420.5H159.224ZM224.382 420.5V458.075L195.282 420.5H181.782V473H193.857V435.5L222.957 473H236.532V420.5H224.382ZM288.141 473H302.466L278.916 440.975L301.416 420.5H285.741L259.116 445.325V420.5H247.041V473H259.116V458.975L270.441 448.7L288.141 473ZM80.95 540.55V540.175C86.65 538.525 89.8 535.15 89.8 529C89.8 518.425 82 515.5 69.4 515.5H36.25V568H67.825C84.25 568 91.75 564.4 91.75 552.55C91.75 545.8 87.85 542.2 80.95 540.55ZM70 524.8C74.875 524.8 78.175 526.45 78.175 530.95C78.175 535.45 75.25 537.175 70 537.175H48.325V524.8H70ZM70.3 558.775H48.325V545.8H70.3C76.225 545.8 79.45 547.225 79.45 551.65C79.45 556.075 77.275 558.775 70.3 558.775ZM139.813 515.5V546.025C139.813 556.75 134.563 559.975 125.563 559.975C116.563 559.975 111.313 556.75 111.313 546.025V515.5H99.2383V546.775C99.2383 565.15 111.163 569.125 125.563 569.125C140.038 569.125 151.888 565.15 151.888 546.775V515.5H139.813ZM162.373 515.5V568H174.448V515.5H162.373ZM231.057 558.7H197.082V515.5H184.932V568H231.057V558.7ZM263.127 515.5H239.277V568H263.127C279.477 568 294.777 562.675 294.777 541.75C294.777 520.825 279.477 515.5 263.127 515.5ZM261.927 558.7H251.427V524.8H261.927C274.452 524.8 282.402 528.25 282.402 541.75C282.402 555.325 274.452 558.7 261.927 558.7Z" fill="#FAFAFA"/>
</svg>
