<svg width="347" height="61" viewBox="0 0 347 61" fill="none" xmlns="http://www.w3.org/2000/svg">
<mask id="mask0_515_2409" style="mask-type:luminance" maskUnits="userSpaceOnUse" x="0" y="0" width="347" height="61">
<path d="M347 0H0V61H347V0Z" fill="white"/>
</mask>
<g mask="url(#mask0_515_2409)">
<path d="M43.0625 13.9876C42.916 20.8713 37.1403 26.3035 30.2622 26.3035H17.9243V58.6835C17.9269 58.8373 17.8988 58.9901 17.8418 59.1327C17.7849 59.2755 17.7001 59.4054 17.5924 59.5152C17.4848 59.6247 17.3564 59.7117 17.2148 59.7711C17.0732 59.8306 16.9212 59.8611 16.7676 59.8611H10.7144C10.5593 59.8636 10.4052 59.8349 10.2613 59.7767C10.1175 59.7185 9.9868 59.6318 9.8771 59.522C9.76737 59.4122 9.68084 59.2813 9.62266 59.1372C9.56451 58.9931 9.53585 58.8388 9.53847 58.6835V26.3035H2.33245C2.02753 26.2974 1.73676 26.1736 1.52111 25.9576C1.30547 25.7415 1.1817 25.4505 1.17578 25.1451V19.0876C1.18182 18.779 1.30826 18.485 1.52803 18.2685C1.7478 18.0521 2.04346 17.9303 2.35172 17.9294H30.3546C32.6179 17.9294 34.6419 16.0801 34.6843 13.8138C34.6972 13.2544 34.5982 12.6982 34.3934 12.1776C34.1888 11.657 33.8822 11.1827 33.4916 10.7824C33.1012 10.3821 32.6349 10.064 32.1202 9.84662C31.6051 9.62928 31.0521 9.51715 30.4934 9.51679H19.0964C18.7881 9.51585 18.4925 9.3941 18.2727 9.17765C18.0529 8.96118 17.9265 8.66719 17.9204 8.35855V2.31647C17.9204 2.16273 17.951 2.01053 18.0103 1.86873C18.0696 1.72693 18.1565 1.59838 18.266 1.49058C18.3755 1.38277 18.5053 1.29786 18.6478 1.2408C18.7904 1.18374 18.9429 1.15568 19.0964 1.15824H30.4934C32.1646 1.15793 33.8193 1.49136 35.3602 2.13902C36.9012 2.78669 38.2977 3.73559 39.4681 4.9302C40.6385 6.12481 41.5591 7.54113 42.1764 9.09635C42.7934 10.6515 43.0947 12.3144 43.0625 13.9876Z" fill="black"/>
<path d="M38.8751 52.6608V58.6836C38.8779 58.8373 38.8497 58.9901 38.7928 59.1327C38.7357 59.2755 38.6509 59.4054 38.5433 59.5152C38.4357 59.6247 38.3073 59.7117 38.1656 59.7711C38.024 59.8306 37.872 59.8611 37.7184 59.8611H27.4781C27.3246 59.8611 27.1725 59.8306 27.0311 59.7711C26.8895 59.7117 26.7611 59.6247 26.6534 59.5152C26.5458 59.4054 26.4611 59.2755 26.4039 59.1327C26.3471 58.9901 26.3189 58.8373 26.3214 58.6836V36.0825C26.3214 35.7755 26.4433 35.4809 26.6603 35.2636C26.8773 35.0466 27.1715 34.9246 27.4781 34.9246H33.5082C33.8151 34.9246 34.1093 35.0466 34.326 35.2636C34.5431 35.4809 34.6649 35.7755 34.6649 36.0825V50.8578C34.6659 51.024 34.7327 51.1831 34.8504 51.3003C34.9682 51.4174 35.1274 51.4833 35.2934 51.4833H37.6801C37.8367 51.4779 37.9928 51.5046 38.139 51.5618C38.2852 51.6187 38.4182 51.7052 38.5299 51.8152C38.6418 51.9253 38.7299 52.0572 38.7893 52.2026C38.8487 52.3479 38.8779 52.5037 38.8751 52.6608Z" fill="black"/>
<path d="M85.8363 15.4121H62.8457V52.823H71.4359V40.6885H84.8223C95.1745 40.6885 100.777 36.5189 100.777 28.0252C100.777 20.489 96.0806 15.4121 85.8363 15.4121ZM84.3403 34.1676H71.4242V22.041H84.3403C89.3525 22.041 92.0245 23.8054 92.0245 28.0252C92.0245 32.1409 89.3563 34.1676 84.3403 34.1676Z" fill="black"/>
<path d="M138.935 52.8189H106.112V15.4121H114.76V46.194H138.935V52.8189Z" fill="black"/>
<path d="M168.927 15.4121H158.362L141.066 52.823H150.193L153.396 45.4874H173.885L177.031 52.823H186.157L168.927 15.4121ZM156.28 38.9241L163.645 21.9368L171.009 38.9241H156.28Z" fill="black"/>
<path d="M221.694 33.2605V32.9941C225.75 31.8359 227.99 29.415 227.99 25.0331C227.99 17.4969 222.442 15.4121 213.474 15.4121H189.901V52.823H212.368C224.058 52.823 229.394 50.2554 229.394 41.8119C229.405 37.0016 226.618 34.4381 221.694 33.2605ZM198.495 22.041H213.918C217.388 22.041 219.74 23.1993 219.74 26.4229C219.74 29.6468 217.654 30.8551 213.918 30.8551H198.495V22.041ZM214.13 46.2479H198.495V36.9823H214.13C218.344 36.9823 220.642 37.9977 220.642 41.1481C220.642 44.2982 219.092 46.2479 214.13 46.2479Z" fill="black"/>
<path d="M271.716 41.1713C271.716 49.2787 265.043 53.6221 251.756 53.6221C238.84 53.6221 232.062 48.7576 232.062 41.1713H241.026C241.242 45.0704 245.726 47.0473 252.5 47.0473C259.598 47.0473 262.591 45.1787 262.591 42.3448C262.591 38.4842 256.806 38.8703 246.632 37.1638C236.457 35.4573 233.234 32.3532 233.234 26.4733C233.234 20.327 237.398 14.6632 251.116 14.6632C264.299 14.6632 269.419 19.6822 269.622 26.315H261.294C260.987 23.6433 257.895 21.2342 250.996 21.2342C243.312 21.2342 241.496 23.319 241.496 25.8671C241.496 29.396 247.688 29.6082 254.25 30.5001C264.563 31.9788 271.716 32.8166 271.716 41.1713Z" fill="black"/>
<path d="M284.417 49.132C284.407 50.018 284.135 50.8809 283.635 51.6126C283.138 52.3444 282.435 52.9122 281.615 53.2444C280.793 53.5766 279.894 53.6584 279.029 53.4795C278.16 53.3006 277.366 52.869 276.744 52.2392C276.122 51.6091 275.701 50.8092 275.531 49.9395C275.363 49.07 275.455 48.1697 275.795 47.3523C276.135 46.5346 276.711 45.8365 277.447 45.3451C278.183 44.8538 279.049 44.5918 279.932 44.5918C281.128 44.5989 282.272 45.0811 283.113 45.9325C283.953 46.784 284.422 47.9346 284.417 49.132Z" fill="black"/>
<path d="M298.877 15.4121H290.285V52.8189H298.877V15.4121Z" fill="black"/>
<path d="M323.323 15.4121H306.357V52.823H323.323C334.958 52.823 345.842 49.0277 345.842 34.1176C345.842 19.2072 334.958 15.4121 323.323 15.4121ZM322.468 46.194H314.998V22.041H322.468C331.377 22.041 337.037 24.5003 337.037 34.1176C337.037 43.7347 331.377 46.194 322.468 46.194Z" fill="black"/>
</g>
</svg>
